<mxfile host="65bd71144e">
    <diagram id="T0bLj8xMQV-cMqMeZZAG" name="ページ1">
        <mxGraphModel dx="935" dy="560" grid="1" gridSize="10" guides="1" tooltips="1" connect="1" arrows="1" fold="1" page="1" pageScale="1" pageWidth="827" pageHeight="1169" math="0" shadow="0">
            <root>
                <mxCell id="0"/>
                <mxCell id="1" parent="0"/>
                <mxCell id="2" value="ユースケース図：&lt;br&gt;登場人物がシステムで何をするかを整理した図" style="rounded=0;whiteSpace=wrap;html=1;align=left;shadow=1;" parent="1" vertex="1">
                    <mxGeometry x="40" y="40" width="280" height="40" as="geometry"/>
                </mxCell>
                <mxCell id="3" value="リバーシ&lt;br&gt;アプリケーション" style="rounded=0;whiteSpace=wrap;html=1;verticalAlign=top;fillColor=none;" vertex="1" parent="1">
                    <mxGeometry x="160" y="120" width="520" height="520" as="geometry"/>
                </mxCell>
                <mxCell id="4" value="プレイヤー" style="shape=umlActor;verticalLabelPosition=bottom;verticalAlign=top;html=1;outlineConnect=0;fillColor=none;" vertex="1" parent="1">
                    <mxGeometry x="80" y="240" width="30" height="60" as="geometry"/>
                </mxCell>
                <mxCell id="7" value="対戦する" style="ellipse;whiteSpace=wrap;html=1;fillColor=none;" vertex="1" parent="1">
                    <mxGeometry x="200" y="250" width="120" height="80" as="geometry"/>
                </mxCell>
                <mxCell id="8" value="" style="endArrow=none;html=1;entryX=0;entryY=0.5;entryDx=0;entryDy=0;" edge="1" parent="1" source="4" target="7">
                    <mxGeometry width="50" height="50" relative="1" as="geometry">
                        <mxPoint x="390" y="290" as="sourcePoint"/>
                        <mxPoint x="440" y="240" as="targetPoint"/>
                    </mxGeometry>
                </mxCell>
                <mxCell id="9" value="・対戦を開始する&lt;br&gt;・盤面を見る&lt;br&gt;・石を打つ&lt;br&gt;・勝敗を確認する" style="shape=note;whiteSpace=wrap;html=1;backgroundOutline=1;darkOpacity=0.05;fillColor=#ffe6cc;strokeColor=#d79b00;align=left;" vertex="1" parent="1">
                    <mxGeometry x="390" y="160" width="135" height="70" as="geometry"/>
                </mxCell>
                <mxCell id="10" value="" style="endArrow=none;dashed=1;html=1;exitX=1;exitY=0.5;exitDx=0;exitDy=0;entryX=0;entryY=0.5;entryDx=0;entryDy=0;entryPerimeter=0;" edge="1" parent="1" source="7" target="9">
                    <mxGeometry width="50" height="50" relative="1" as="geometry">
                        <mxPoint x="390" y="260" as="sourcePoint"/>
                        <mxPoint x="440" y="210" as="targetPoint"/>
                    </mxGeometry>
                </mxCell>
                <mxCell id="11" value="自分の過去の対戦結果を確認する" style="ellipse;whiteSpace=wrap;html=1;fillColor=none;" vertex="1" parent="1">
                    <mxGeometry x="200" y="340" width="120" height="80" as="geometry"/>
                </mxCell>
                <mxCell id="12" value="会員登録・&lt;br&gt;ログインする" style="ellipse;whiteSpace=wrap;html=1;fillColor=none;" vertex="1" parent="1">
                    <mxGeometry x="260" y="450" width="120" height="80" as="geometry"/>
                </mxCell>
                <mxCell id="13" value="一人で黒白&lt;br&gt;交互に打つ" style="ellipse;whiteSpace=wrap;html=1;fillColor=none;" vertex="1" parent="1">
                    <mxGeometry x="470" y="260" width="120" height="80" as="geometry"/>
                </mxCell>
                <mxCell id="14" value="コンピュータと&lt;br&gt;対戦する&lt;span style=&quot;white-space: pre;&quot;&gt;&#9;&lt;/span&gt;" style="ellipse;whiteSpace=wrap;html=1;fillColor=none;" vertex="1" parent="1">
                    <mxGeometry x="490" y="450" width="120" height="80" as="geometry"/>
                </mxCell>
                <mxCell id="15" value="他のプレイヤーと&lt;br&gt;対戦する" style="ellipse;whiteSpace=wrap;html=1;fillColor=none;" vertex="1" parent="1">
                    <mxGeometry x="490" y="545" width="120" height="80" as="geometry"/>
                </mxCell>
                <mxCell id="17" value="" style="endArrow=none;html=1;entryX=0;entryY=0.5;entryDx=0;entryDy=0;" edge="1" parent="1" source="4" target="12">
                    <mxGeometry width="50" height="50" relative="1" as="geometry">
                        <mxPoint x="120" y="275.71428571428567" as="sourcePoint"/>
                        <mxPoint x="210" y="250" as="targetPoint"/>
                    </mxGeometry>
                </mxCell>
                <mxCell id="18" value="" style="endArrow=none;html=1;entryX=0;entryY=0.5;entryDx=0;entryDy=0;" edge="1" parent="1" source="4" target="11">
                    <mxGeometry width="50" height="50" relative="1" as="geometry">
                        <mxPoint x="120" y="330" as="sourcePoint"/>
                        <mxPoint x="210" y="390" as="targetPoint"/>
                    </mxGeometry>
                </mxCell>
                <mxCell id="19" value="Extends" style="endArrow=block;endSize=16;endFill=0;html=1;exitX=0;exitY=0.5;exitDx=0;exitDy=0;entryX=0.958;entryY=0.738;entryDx=0;entryDy=0;entryPerimeter=0;" edge="1" parent="1" source="13" target="7">
                    <mxGeometry width="160" relative="1" as="geometry">
                        <mxPoint x="320" y="330" as="sourcePoint"/>
                        <mxPoint x="480" y="330" as="targetPoint"/>
                    </mxGeometry>
                </mxCell>
                <mxCell id="21" value="Extends" style="endArrow=block;endSize=16;endFill=0;html=1;exitX=0;exitY=0.5;exitDx=0;exitDy=0;entryX=1;entryY=1;entryDx=0;entryDy=0;startArrow=none;" edge="1" parent="1" source="14" target="7">
                    <mxGeometry width="160" relative="1" as="geometry">
                        <mxPoint x="260" y="260" as="sourcePoint"/>
                        <mxPoint x="324.96000000000004" y="269.03999999999996" as="targetPoint"/>
                    </mxGeometry>
                </mxCell>
                <mxCell id="22" value="Extends" style="endArrow=block;endSize=16;endFill=0;html=1;exitX=0;exitY=0.5;exitDx=0;exitDy=0;entryX=0.783;entryY=0.938;entryDx=0;entryDy=0;entryPerimeter=0;" edge="1" parent="1" source="15" target="7">
                    <mxGeometry width="160" relative="1" as="geometry">
                        <mxPoint x="470" y="380" as="sourcePoint"/>
                        <mxPoint x="312.42640687119297" y="278.284271247462" as="targetPoint"/>
                    </mxGeometry>
                </mxCell>
                <mxCell id="24" value="プレイヤーの&lt;br&gt;ランキングを&lt;br&gt;確認する" style="ellipse;whiteSpace=wrap;html=1;fillColor=none;" vertex="1" parent="1">
                    <mxGeometry x="200" y="530" width="120" height="80" as="geometry"/>
                </mxCell>
                <mxCell id="29" value="" style="rounded=0;whiteSpace=wrap;html=1;fillColor=none;strokeColor=#FF3333;strokeWidth=5;" vertex="1" parent="1">
                    <mxGeometry x="187.5" y="240" width="430" height="190" as="geometry"/>
                </mxCell>
                <mxCell id="31" value="" style="endArrow=none;html=1;entryX=0;entryY=0;entryDx=0;entryDy=0;" edge="1" parent="1" source="4" target="24">
                    <mxGeometry width="50" height="50" relative="1" as="geometry">
                        <mxPoint x="80" y="300" as="sourcePoint"/>
                        <mxPoint x="305" y="581.25" as="targetPoint"/>
                    </mxGeometry>
                </mxCell>
            </root>
        </mxGraphModel>
    </diagram>
</mxfile>